<?xml version="1.0" encoding="UTF-8"?>
<svg id="Layer_2" data-name="Layer 2" xmlns="http://www.w3.org/2000/svg" viewBox="0 0 399.31 400">
  <defs>
    <style>
      .cls-1 {
        fill: #6439ff;
        stroke-width: 0px;
      }
    </style>
  </defs>
  <g id="OBJECTS">
    <path class="cls-1" d="M248.03,400h-1.56c0-27.16-.08-54.33.04-81.49.05-11.57-2.64-22.1-10.08-31.19-1.52-1.86-2.8-3.92-3.93-5.51,10.36-3.06,20.62-5.41,30.37-9.1,34.84-13.2,56.22-44.8,55.92-82.06-.14-17.56-6.01-33.42-15.81-47.72-4.07-5.93-6.1-11.4-3.02-18.25.76-1.7.59-3.83.79-5.76,1.23-12.5-.83-24.49-5.09-35.64-12.85-.51-23.69,4.34-34.2,10.19-4.54,2.52-9.13,4.97-13.5,7.76-2.88,1.84-5.58,2.06-8.83,1.21-25.23-6.57-50.59-7.11-75.9-.64-5.47,1.4-9.76.81-14.58-2.18-13.68-8.5-27.54-16.85-44.82-16.54-5.92,15.3-7.57,31.14-3.01,47.35.82,2.92.41,5.07-1.39,7.53-17.94,24.45-22.81,51.63-14.43,80.5,8.59,29.57,29.68,47.39,58.32,56.77,7.68,2.51,15.64,4.15,23.55,6.21-.15.37-.24.76-.45,1.05-5.61,7.67-11.22,15.33-12.46,25.19-.09.69-.92,1.62-1.61,1.86-9.17,3.21-18.26,3.73-26.06-3.08-3.45-3.01-5.71-7.35-8.81-10.81-5.08-5.67-9.93-11.71-15.77-16.51-7.17-5.89-15.87-8.5-25.68-7.61.7,7.85,1.38,15.42,2.07,23.04,5.88.25,10.4,2.67,13.89,6.77,3.19,3.74,6.17,7.68,8.96,11.72,10.58,15.34,24.99,22.99,43.73,22.08,2.65-.13,5.29-.63,8.22-.99v65.86h-1.56c-2.8-.92-5.59-1.87-8.4-2.75-32.92-10.34-61.08-28.25-84.77-53.27-25.91-27.37-43.35-59.39-52.27-95.98-7.11-29.19-7.97-58.64-1.66-88.05,9.52-44.39,31.15-82.1,66.17-110.96C130.71-.72,198.8-13.55,271.7,14.86c68.99,26.89,110.2,79.01,124.58,151.88,1.43,7.22,2.04,14.61,3.03,21.92v21.06c-.22,1.4-.55,2.78-.63,4.19-1.17,19.3-5.22,38.01-11.82,56.14-11.23,30.87-28.61,57.81-52.25,80.63-17.73,17.11-37.8,30.79-60.7,40.07-8.48,3.44-17.25,6.19-25.88,9.25Z"/>
  </g>
</svg>