<?xml version="1.0" encoding="UTF-8"?>
<svg id="Layer_2" data-name="Layer 2" xmlns="http://www.w3.org/2000/svg" viewBox="0 0 399.8 400">
  <defs>
    <style>
      .cls-1 {
        fill: #6439ff;
        stroke-width: 0px;
      }
    </style>
  </defs>
  <g id="OBJECTS">
    <g>
      <path class="cls-1" d="M212.31,400h-25c-1-.22-1.99-.56-3-.64-43.68-3.55-82.46-19.25-115.24-48.31C17.77,305.56-5.03,248.1.93,179.87c3.72-42.62,20.46-80.24,49.01-112.13C88.94,24.19,137.96,1.49,196.45.06c37.84-.92,73.34,8.33,105.62,28.12,51.72,31.7,83.5,77.5,94.66,137.31,1.35,7.26,2.06,14.65,3.07,21.98v25c-.32,2.56-.68,5.12-.96,7.69-4.28,39.56-18.62,75.05-43.86,105.83-31.39,38.27-71.56,62.03-120.34,70.91-7.39,1.34-14.88,2.08-22.33,3.1ZM84.36,200.09c.72,19,.75,38.17,2.34,57.22,2.43,29.11,22.73,50.93,51.53,55.03,14.48,2.06,29.31,2.32,43.98,2.32,24.85,0,49.76.11,74.52-1.64,22.97-1.62,40.43-13.39,50.54-34.71,4.41-9.3,6.38-19.3,6.54-29.52.41-26.95.64-53.9.66-80.85,0-8.44-.58-16.92-1.44-25.33-2.98-29.18-22.73-50.81-51.64-55-14.35-2.08-29.05-2.32-43.59-2.31-24.98,0-50.02-.12-74.92,1.59-31.05,2.13-53.62,25.06-56.21,56.09-1.57,18.91-1.58,37.96-2.3,57.1Z"/>
      <path class="cls-1" d="M199.86,105.46c17.25.49,34.7.56,52.1,1.59,24.07,1.43,39.97,16.6,40.61,40.59.92,34.71.95,69.49.02,104.2-.66,24.52-16.43,40.28-40.98,40.94-34.57.94-69.21.92-103.79,0-24.32-.65-40.15-16.43-40.8-40.68-.93-34.71-.93-69.49,0-104.2.65-24.27,16.49-39.4,40.76-40.85,17.26-1.03,34.59-1.09,52.08-1.58ZM258.73,199.94c-.03-32.56-26.18-58.77-58.76-58.9-32.65-.13-59.12,26.28-59.1,58.96.02,32.53,26.2,58.77,58.77,58.91,32.63.14,59.12-26.3,59.09-58.97ZM274.83,139.03c.16-7.59-5.69-13.86-13.16-14.09-7.8-.25-14.12,5.67-14.27,13.35-.15,7.63,5.66,13.86,13.14,14.08,7.8.23,14.13-5.68,14.29-13.34Z"/>
      <path class="cls-1" d="M199.72,238.25c-21.03-.04-38.18-17.23-38.18-38.27,0-21.2,17.33-38.41,38.55-38.28,21.03.13,38.06,17.38,37.98,38.46-.08,21.04-17.3,38.13-38.36,38.09Z"/>
    </g>
  </g>
</svg>